<svg xmlns="http://www.w3.org/2000/svg" xmlns:xlink="http://www.w3.org/1999/xlink" width="174" height="174" viewBox="0 0 174 174">
  <defs>
    <filter id="Ellipse_1" x="0" y="0" width="174" height="174" filterUnits="userSpaceOnUse">
      <feOffset dx="3" dy="3" input="SourceAlpha"/>
      <feGaussianBlur stdDeviation="5" result="blur"/>
      <feFlood flood-opacity="0.161"/>
      <feComposite operator="in" in2="blur"/>
      <feComposite in="SourceGraphic"/>
    </filter>
  </defs>
  <g id="MessageIcon" transform="translate(-234 -73)">
    <g transform="matrix(1, 0, 0, 1, 234, 73)" filter="url(#Ellipse_1)">
      <circle id="Ellipse_1-2" data-name="Ellipse 1" cx="72" cy="72" r="72" transform="translate(12 12)" fill="#f9f9f9"/>
    </g>
    <path id="Union_1" data-name="Union 1" d="M7.247,55.162a30.319,30.319,0,0,0,2.011-8.227c.005-4.864.037-36.3,0-36.552C9.845,3.5,13.353-.362,20.922.027c-.185.161,39.657.161,39.792,0,8.068-.114,10.12,3.056,10.244,10.357,0,0,.149,24.388,0,24.658C70.7,44,66.868,47.31,58.8,47.565c-.172.012-19.794.009-34.288.005a28.609,28.609,0,0,1-11.931,13.1C3.146,66.048,0,66.185,0,66.185A46.326,46.326,0,0,0,7.247,55.162Z" transform="translate(282 124)" fill="#818181" opacity="0.8"/>
  </g>
</svg>
