<svg xmlns="http://www.w3.org/2000/svg" width="38.904" height="47.275" viewBox="0 0 38.904 47.275">
  <path id="Path_1" data-name="Path 1" d="M37.574,9.784a12.322,12.322,0,0,1-5.163,4.491,25.71,25.71,0,0,1-7.211,1.68,31,31,0,0,1-9.927-1.833,20.84,20.84,0,0,1-7-4.857,21.355,21.355,0,0,1-4.43-7.088A23.7,23.7,0,0,1,2.32-6.347a25.282,25.282,0,0,1,1.619-9.2,21.889,21.889,0,0,1,4.552-7.271,20.66,20.66,0,0,1,6.935-4.8,22.075,22.075,0,0,1,8.768-1.711,33.2,33.2,0,0,1,8.8,1.314,28.726,28.726,0,0,1,5.8,2.6l-2.383,4.949a18.147,18.147,0,0,0-5.01-2.352,14.567,14.567,0,0,0-5.193-.58h0a21.224,21.224,0,0,0-9.528,2.444,16.459,16.459,0,0,0-5.591,5.927A16.7,16.7,0,0,0,8.98-6.652,18.107,18.107,0,0,0,10.9,1.78a14.463,14.463,0,0,0,5.468,5.866,15.771,15.771,0,0,0,8.31,2.138c1.759,0,5.474-.432,7.333-3.541ZM36.414-20.461a31.464,31.464,0,0,0-5.01-2.352,16.57,16.57,0,0,0-5.2-.58,8.768,8.768,0,0,0-5.5,1.558,5.141,5.141,0,0,0-2.016,4.308,4.588,4.588,0,0,0,1.344,3.33,12.863,12.863,0,0,0,3.483,2.444,41.308,41.308,0,0,0,4.521,1.925,37.187,37.187,0,0,1,5.316,2.505,12.188,12.188,0,0,1,4.216,4,12.1,12.1,0,0,1,1.65,6.69,11.835,11.835,0,0,1-1.65,6.415,12.822,12.822,0,0,1-5.163,4.491A16.561,16.561,0,0,1,25.2,15.949c.153,0-6.19-.443-8.736-1.339A32.3,32.3,0,0,1,8.277,9.264l5.3-3.787c-1.625-1.516.717,1.354,2.795,2.168,1.857.728,3.69,2.1,8.31,2.138,3.786-.354,5.692-1.365,6.568-2.383a5.969,5.969,0,0,0,1.314-4.033A5.533,5.533,0,0,0,31.4-.176a10,10,0,0,0-3.024-2.505,28.808,28.808,0,0,0-4-1.833Q22.3-5.308,20.131-6.255a18.4,18.4,0,0,1-3.971-2.352,11.176,11.176,0,0,1-2.933-3.452,10.168,10.168,0,0,1-1.13-4.98,11.357,11.357,0,0,1,1.68-6.2A11.5,11.5,0,0,1,18.42-27.4a16.838,16.838,0,0,1,6.874-1.68,25.016,25.016,0,0,1,7.7,1.069,27.267,27.267,0,0,1,5.8,2.6Z" transform="translate(-1.32 30.32)" fill="#312540" stroke="#e6e6e6" stroke-width="2"/>
</svg>
